Coordinates
version=1
nRows=22
nColumns=32
inDegrees=yes

Units are S.I. units (second, meters, Newtons, ...)
If the header above contains a line with 'inDegrees', this indicates whether rotational values are in degrees (yes) or radians (no).

endheader
time	pelvis_tilt	pelvis_list	pelvis_rotation	pelvis_tx	pelvis_ty	pelvis_tz	hip_flexion_r	hip_adduction_r	hip_rotation_r	knee_angle_r	knee_adduction_r	med_cond_adduction_r	lat_cond_adduction_r	patella_r_constrained_knee_angle	ankle_angle_r	subtalar_angle_r	mtp_angle_r	hip_flexion_l	hip_adduction_l	hip_rotation_l	knee_angle_l	knee_adduction_l	med_cond_adduction_l	lat_cond_adduction_l	patella_l_constrained_knee_angle	ankle_angle_l	subtalar_angle_l	mtp_angle_l	lumbar_extension	lumbar_bending	lumbar_rotation
      0.88500000	     -8.83715042	      2.79899793	     -2.66124979	      0.22313443	      0.88580140	     -1.21234150	     24.09395414	    -26.15695148	    -22.09017356	    -26.33774332	      2.55035135	      0.00000000	      0.00000000	     -0.45968034	     -1.86478265	      3.63467024	     -0.00000000	     21.04200954	    -21.34180090	    -36.00082584	    -24.89278973	     -1.83624574	     -0.00000000	     -0.00000000	     -0.43446114	     -0.54992459	     17.90295230	     -0.00000000	     -1.90376479	     -2.05084854	      1.38447291
      0.89000000	     -9.16936065	      3.23386475	     -2.75924432	      0.22201239	      0.88387209	     -1.21203089	     25.24581099	    -26.82759837	    -21.34632938	    -27.39793173	      2.78578090	     -0.00000000	     -0.00000000	     -0.47818412	     -1.39842114	      3.75351113	     -0.00000000	     21.70361463	    -21.10840271	    -36.05318524	    -25.50078327	     -1.93133725	      0.00000000	      0.00000000	     -0.44507263	     -0.31239181	     17.85223021	     -0.00000000	     -1.77062851	     -2.15564826	      2.27391682
      0.89500000	     -9.43706716	      3.19335223	     -2.80411094	      0.22089175	      0.88210438	     -1.21187243	     26.04725907	    -26.91765821	    -20.87308581	    -28.15813942	      2.94495530	     -0.00000000	     -0.00000000	     -0.49145224	     -1.14393149	      3.55724925	      0.00000000	     22.42772703	    -21.50894395	    -35.87527193	    -26.39370563	     -1.83851876	     -0.00000000	      0.00000000	     -0.46065707	      0.02536214	     17.85123019	     -0.00000000	     -1.72019090	     -2.13694205	      2.29793309
      0.90000000	     -9.71761941	      2.97367511	     -2.82661766	      0.21969633	      0.88027800	     -1.21172938	     26.79921624	    -26.77215007	    -20.54231954	    -28.87776875	      2.99637077	      0.00000000	      0.00000000	     -0.50401215	     -0.89801536	      3.36287960	      0.00000000	     23.24465351	    -22.14419440	    -35.61908266	    -27.40962236	     -1.71343239	      0.00000000	      0.00000000	     -0.47838816	      0.39903440	     17.86015071	     -0.00000000	     -1.67308862	     -1.92649150	      2.21267710
      0.90500000	    -10.01058330	      2.91728559	     -2.89803865	      0.21858843	      0.87829256	     -1.21148969	     27.63675102	    -26.85289365	    -20.08355439	    -29.65608380	      3.17739352	     -0.00000000	     -0.00000000	     -0.51759631	     -0.59801760	      3.31025294	     -0.00000000	     23.99824878	    -22.61318258	    -35.39402716	    -28.34690926	     -1.55038626	     -0.00000000	     -0.00000000	     -0.49474690	      0.75692149	     17.86201087	     -0.00000000	     -1.57454889	     -1.80286941	      2.41194127
      0.91000000	    -10.27786035	      2.82524436	     -2.92259170	      0.21745250	      0.87631189	     -1.21138482	     28.42082343	    -26.91581560	    -19.71202180	    -30.44708985	      3.33575924	      0.00000000	      0.00000000	     -0.53140197	     -0.29041149	      3.21054027	     -0.00000000	     24.77274897	    -23.08604295	    -35.13895839	    -29.30053376	     -1.42758856	     -0.00000000	     -0.00000000	     -0.51139079	      1.11558078	     17.85804972	     -0.00000000	     -1.52982159	     -1.69921830	      2.43264780
      0.91500000	    -10.56086887	      2.73697603	     -3.00007548	      0.21625764	      0.87426208	     -1.21108488	     29.26632653	    -26.92137960	    -19.29650640	    -31.23236039	      3.43961313	      0.00000000	      0.00000000	     -0.54510752	     -0.02046909	      3.11505289	     -0.00000000	     25.53310856	    -23.60227289	    -34.88866398	    -30.25091660	     -1.25373541	     -0.00000000	     -0.00000000	     -0.52797810	      1.43699060	     17.84817074	     -0.00000000	     -1.45448259	     -1.59470533	      2.53442015
      0.92000000	    -10.82130276	      2.64429538	     -3.05248438	      0.21509343	      0.87220370	     -1.21091470	     30.05075138	    -26.95393347	    -18.88972165	    -31.99493965	      3.60052970	     -0.00000000	     -0.00000000	     -0.55841704	      0.25329076	      2.99271524	     -0.00000000	     26.28238254	    -24.08954303	    -34.61886940	    -31.18040964	     -1.10139771	     -0.00000000	     -0.00000000	     -0.54420081	      1.77655555	     17.83045652	     -0.00000000	     -1.41156641	     -1.54739644	      2.48891875
      0.92500000	    -11.07756835	      2.62840007	     -3.09991344	      0.21394140	      0.87006918	     -1.21071971	     30.88248828	    -27.08930979	    -18.49073735	    -32.82402443	      3.74979554	     -0.00000000	     -0.00000000	     -0.57288730	      0.57373349	      3.00424939	     -0.00000000	     27.01358151	    -24.48132833	    -34.37277351	    -32.07928478	     -0.96538236	     -0.00000000	      0.00000000	     -0.55988914	      2.10128117	     17.81329295	     -0.00000000	     -1.36665671	     -1.55109149	      2.52536988
      0.93000000	    -11.32489722	      2.44145443	     -3.17784764	      0.21276959	      0.86792671	     -1.21045496	     31.63779582	    -26.98621107	    -18.18974783	    -33.57877020	      3.82711660	      0.00000000	      0.00000000	     -0.58606010	      0.85581920	      2.96220271	      0.00000000	     27.76499579	    -25.11382314	    -34.04756472	    -33.05058637	     -0.75153412	      0.00000000	      0.00000000	     -0.57684155	      2.44624848	     17.80619643	     -0.00000000	     -1.34839986	     -1.32846160	      2.60150256
      0.93500000	    -11.48745135	      1.89347451	     -3.11187706	      0.21172043	      0.86600011	     -1.21056356	     31.99341586	    -26.58052036	    -18.42631852	    -34.14025402	      3.78635469	     -0.00000000	     -0.00000000	     -0.59585984	      1.07221823	      3.00736971	      0.00000000	     28.59366501	    -26.07643896	    -33.32458761	    -34.13674376	     -0.43608429	      0.00000000	      0.00000000	     -0.59579857	      2.81808765	     17.81602906	     -0.00000000	     -1.40593954	     -1.09603689	      1.74618570
      0.94000000	    -11.84285365	      2.22222212	     -3.33993523	      0.21039309	      0.86343241	     -1.20989668	     33.26113115	    -26.94840327	    -17.48409261	    -35.15183839	      4.01486196	      0.00000000	      0.00000000	     -0.61351532	      1.43262217	      2.86298006	     -0.00000000	     29.25737085	    -26.17501643	    -33.43780880	    -34.89679884	     -0.36918386	     -0.00000000	     -0.00000000	     -0.60906404	      3.10421597	     17.79393951	      0.00000000	     -1.26430454	     -1.11335785	      2.72145039
      0.94500000	    -12.09261135	      2.39767757	     -3.40646162	      0.20921805	      0.86107319	     -1.20963409	     34.21591447	    -27.28457086	    -16.96284129	    -36.07033271	      4.19279944	      0.00000000	      0.00000000	     -0.62954607	      1.78341210	      2.97647306	     -0.00000000	     29.92594385	    -26.33501839	    -33.31663223	    -35.69582598	     -0.30453519	     -0.00000000	     -0.00000000	     -0.62300969	      3.39840652	     17.77762155	      0.00000000	     -1.20542443	     -1.35579280	      2.80345051
      0.95000000	    -12.32996267	      2.27086382	     -3.48407005	      0.20801721	      0.85875395	     -1.20936799	     35.00110648	    -27.23055658	    -16.66417668	    -36.84759826	      4.23615564	      0.00000000	     -0.00000000	     -0.64311191	      2.06503159	      2.93879741	      0.00000000	     30.65937320	    -26.88159660	    -32.98346169	    -36.61552832	     -0.10249595	     -0.00000000	     -0.00000000	     -0.63906153	      3.76422852	     17.79222272	      0.00000000	     -1.19480601	     -1.19194062	      2.93613997
      0.95500000	    -12.59683371	      2.24323367	     -3.58301370	      0.20683527	      0.85632325	     -1.20902242	     35.88382956	    -27.27702614	    -16.28108998	    -37.67527045	      4.31172290	     -0.00000000	     -0.00000000	     -0.65755752	      2.42970799	      3.02906877	      0.00000000	     31.39325783	    -27.31815877	    -32.77247247	    -37.49274222	      0.02840617	     -0.00000000	     -0.00000000	     -0.65437180	      4.01093184	     17.76533034	     -0.00000000	     -1.13295978	     -1.19332607	      2.99190253
      0.96000000	    -12.69113246	      1.70403527	     -3.47193027	      0.20581853	      0.85440674	     -1.20929118	     36.11408269	    -26.93003900	    -16.68427974	    -38.22444263	      4.19833812	      0.00000000	      0.00000000	     -0.66714238	      2.64450221	      3.24689371	     -0.00000000	     32.19466939	    -28.13669365	    -31.98831956	    -38.44547206	      0.22462626	      0.00000000	      0.00000000	     -0.67100007	      4.34116978	     17.80004820	      0.00000000	     -1.29030187	     -0.90647173	      2.15619576
      0.96500000	    -13.01909800	      2.20169314	     -3.74949930	      0.20450046	      0.85165183	     -1.20844019	     37.47691378	    -27.38391382	    -15.57585245	    -39.24074229	      4.43730369	     -0.00000000	     -0.00000000	     -0.68488015	      2.96033382	      3.10044087	      0.00000000	     32.71515869	    -28.10055606	    -32.28182870	    -39.12479287	      0.27920377	     -0.00000000	     -0.00000000	     -0.68285645	      4.60639339	     17.79320381	      0.00000000	     -1.14482750	     -1.12232567	      3.24857820
      0.97000000	    -13.18226506	      1.97741567	     -3.78489039	      0.20339484	      0.84944494	     -1.20835292	     38.06491942	    -27.25658977	    -15.49733949	    -39.93372158	      4.41781057	     -0.00000000	     -0.00000000	     -0.69697492	      3.22089908	      3.19122393	      0.00000000	     33.41433632	    -28.67108654	    -31.88921983	    -39.98439098	      0.42788983	     -0.00000000	     -0.00000000	     -0.69785927	      4.86470594	     17.80462335	      0.00000000	     -1.23473715	     -1.00615045	      2.98533427
      0.97500000	    -13.38726223	      1.98044034	     -3.89827113	      0.20224521	      0.84703518	     -1.20794305	     38.86656997	    -27.28439200	    -15.09878635	    -40.68880018	      4.46326861	     -0.00000000	     -0.00000000	     -0.71015353	      3.49484736	      3.19532453	     -0.00000000	     34.04461302	    -29.06118793	    -31.68480191	    -40.78545067	      0.55607665	      0.00000000	      0.00000000	     -0.71184040	      5.15399141	     17.84399455	     -0.00000000	     -1.23885760	     -0.93730883	      3.30998065
      0.98000000	    -13.59144451	      1.97306538	     -3.96527361	      0.20110106	      0.84457911	     -1.20769726	     39.66675015	    -27.35999102	    -14.79171537	    -41.49719805	      4.49689813	     -0.00000000	      0.00000000	     -0.72426274	      3.79902727	      3.30334488	      0.00000000	     34.71672873	    -29.41176666	    -31.46703635	    -41.58216362	      0.62089304	      0.00000000	     -0.00000000	     -0.72574567	      5.43211566	     17.86883919	     -0.00000000	     -1.24280144	     -0.95296560	      3.35548309
      0.98500000	    -13.78776533	      1.86520280	     -3.99701543	      0.19997270	      0.84218190	     -1.20756627	     40.34775488	    -27.33835291	    -14.63171469	    -42.21096738	      4.48320375	     -0.00000000	     -0.00000000	     -0.73672036	      4.07993434	      3.41247624	      0.00000000	     35.43979875	    -29.83716952	    -31.12025262	    -42.40496713	      0.70934764	     -0.00000000	     -0.00000000	     -0.74010630	      5.71848230	     17.90113480	     -0.00000000	     -1.26447371	     -0.88739676	      3.28709709
      0.99000000	    -14.05168044	      2.03257331	     -4.07317896	      0.19877418	      0.83949577	     -1.20731170	     41.32685021	    -27.57091174	    -14.09628449	    -43.06778811	      4.58931646	     -0.00000000	     -0.00000000	     -0.75167470	      4.41064058	      3.47979774	     -0.00000000	     36.13158531	    -29.99426652	    -31.06825986	    -43.16284195	      0.68986132	      0.00000000	      0.00000000	     -0.75333371	      6.01257428	     17.94525272	      0.00000000	     -1.18598671	     -1.02425149	      3.51603583
